<svg xmlns="http://www.w3.org/2000/svg" xmlns:xlink="http://www.w3.org/1999/xlink" width="25.746" height="13.053" viewBox="0 0 25.746 13.053"><defs><style>.a{clip-path:url(#a);}</style><clipPath id="a"><path d="M1356.971,51.033l1.191,2.06h-2.383Zm4.451-9.889-4.451,7.706-4.451-7.706-.885-.012L1344.1,54.185h1.257l6.72-11.637.629,1.079-6.1,10.558h1.27l5.453-9.464.629,1.08-4.84,8.384h1.257l4.211-7.279,1.75,3.04-2.449,4.237h6.163l-2.449-4.237,1.75-3.04,4.211,7.279h1.258l-4.841-8.384.63-1.08,5.453,9.464h1.268l-6.095-10.558.629-1.079,6.72,11.637h1.258l-7.539-13.053Z"/></clipPath></defs><g transform="translate(-1344.098 -41.132)"><g class="a"><rect width="25.746" height="13.054" transform="translate(1344.098 41.132)"/></g></g></svg>