<svg xmlns="http://www.w3.org/2000/svg" width="180" height="52.671" viewBox="0 0 180 52.671"><defs><style>.cls-2,.cls-3,.cls-4,.cls-5,.cls-6,.cls-7,.cls-8{fill:#4178b7}.cls-3{opacity:.9}.cls-4{opacity:.8}.cls-5{opacity:.7}.cls-6{opacity:.6}.cls-7{opacity:.5}.cls-8{opacity:.4}</style></defs><g id="blockchain-capital-vector-logo" transform="translate(-20.6 -233.9)"><path id="Path_10688" fill="#292e35" d="M228 284.01h4.169a3.075 3.075 0 012.28.75 1.894 1.894 0 01-.75 3.119 1.942 1.942 0 011.59 1.98c0 1.44-1.14 2.28-3.119 2.28H228zm3.629 3.269c.69 0 1.05-.24 1.05-.69s-.39-.69-1.05-.69h-1.44v1.44h1.44zm.3 3.119c.69 0 1.05-.3 1.05-.75s-.39-.75-1.14-.75H230.1v1.53h1.83zm8.669-6.389h2.28v6.209h3.929v1.98H240.6zm10.678 4.109a4.34 4.34 0 014.409-4.319 4.262 4.262 0 110 8.519 4.225 4.225 0 01-4.409-4.199zm6.539 0a2.172 2.172 0 00-2.13-2.28 2.193 2.193 0 00.09 4.379 1.953 1.953 0 002.04-2.098zm7.409 0a4.228 4.228 0 014.319-4.319 3.961 3.961 0 013.479 1.74l-1.74 1.29a2.156 2.156 0 00-1.83-.99 2.2 2.2 0 000 4.379 2.156 2.156 0 001.83-.99l1.74 1.2a4.145 4.145 0 01-3.629 1.83 4.007 4.007 0 01-4.169-4.139zm13.138-4.109h2.28v3.329l2.82-3.329h2.73l-3.119 3.569 3.179 4.709h-2.729l-2.04-3.029-.84.9v2.13h-2.28v-8.278zm11.818 4.109a4.228 4.228 0 014.32-4.318 3.961 3.961 0 013.479 1.74l-1.74 1.29a2.156 2.156 0 00-1.83-.99 2.2 2.2 0 000 4.379 2.156 2.156 0 001.83-.99l1.74 1.2a4.145 4.145 0 01-3.629 1.83 3.991 3.991 0 01-4.17-4.14zm13.048-4.109h2.28v3.029h2.879v-3.028h2.28v8.19h-2.28v-3.119h-2.879v3.119h-2.28zm16.017-.06h2.19l3.479 8.279h-2.43l-.6-1.44H318.7l-.6 1.44h-2.43zm1.95 5.009l-.9-2.34-.9 2.34zm8.729-4.949h2.28v8.191h-2.28zm8.039 0h2.13l3.419 4.319v-4.318h2.28v8.19h-1.98l-3.479-4.469v4.469h-2.28v-8.19zm-109.9 19.647a4.143 4.143 0 014.169-4.259 4.268 4.268 0 013.179 1.29l-.6.69a3.665 3.665 0 00-2.58-1.14 3.18 3.18 0 00-3.179 3.329 3.277 3.277 0 003.179 3.419 3.478 3.478 0 002.64-1.2l.6.6a4.392 4.392 0 01-3.269 1.44 4.01 4.01 0 01-4.142-4.168zm16.317-4.169h.84l3.719 8.279h-.99l-.99-2.19h-4.469l-.99 2.19h-.99l3.869-8.279zm2.28 5.249l-1.89-4.169-1.89 4.169zm8.1-5.159h3.03c1.83 0 3.029.99 3.029 2.58 0 1.74-1.44 2.64-3.269 2.64h-1.95v2.879h-.9v-8.129h.06zm2.97 4.469c1.38 0 2.28-.75 2.28-1.83 0-1.14-.9-1.74-2.19-1.74h-2.04v3.629h1.98v-.06zm9.178-4.469h.9v8.189h-.9zm9.718.81h-2.73v-.84h6.449v.84h-2.73v7.349h-.9v-7.349zm11.668-.9h.84l3.719 8.279h-.99l-.99-2.19H286.4l-.99 2.19h-.99zm2.28 5.249l-1.89-4.169-1.89 4.169zm8.1-5.159h.9v7.349h4.619v.84h-5.549v-8.189z" transform="translate(-145.19 -34.933)"/><g id="Group_31193" transform="translate(20.6 233.9)"><circle id="Ellipse_1483" cx="1.83" cy="1.83" r="1.83" class="cls-2" transform="translate(28.825 30.055)"/><circle id="Ellipse_1484" cx="1.68" cy="1.68" r="1.68" class="cls-3" transform="translate(32.005 33.834)"/><circle id="Ellipse_1485" cx="1.53" cy="1.53" r="1.53" class="cls-4" transform="translate(34.734 37.464)"/><circle id="Ellipse_1486" cx="1.2" cy="1.2" r="1.2" class="cls-5" transform="translate(37.044 41.213)"/><circle id="Ellipse_1487" cx=".99" cy=".99" r=".99" class="cls-6" transform="translate(38.844 44.693)"/><circle id="Ellipse_1488" cx=".9" cy=".9" r=".9" class="cls-7" transform="translate(39.983 48.022)"/><circle id="Ellipse_1489" cx=".69" cy=".69" r=".69" class="cls-8" transform="translate(40.823 51.291)"/><circle id="Ellipse_1490" cx="1.83" cy="1.83" r="1.83" class="cls-2" transform="translate(29.275 23.906)"/><circle id="Ellipse_1491" cx="1.68" cy="1.68" r="1.68" class="cls-3" transform="translate(33.834 22.316)"/><circle id="Ellipse_1492" cx="1.53" cy="1.53" r="1.53" class="cls-4" transform="translate(38.064 21.026)"/><circle id="Ellipse_1493" cx="1.2" cy="1.2" r="1.2" class="cls-5" transform="translate(42.203 20.517)"/><circle id="Ellipse_1494" cx=".99" cy=".99" r=".99" class="cls-6" transform="translate(46.042 20.277)"/><circle id="Ellipse_1495" cx=".9" cy=".9" r=".9" class="cls-7" transform="translate(49.552 20.367)"/><circle id="Ellipse_1496" cx=".69" cy=".69" r=".69" class="cls-8" transform="translate(52.881 20.877)"/><circle id="Ellipse_1497" cx="1.83" cy="1.83" r="1.83" class="cls-2" transform="translate(23.516 21.536)"/><circle id="Ellipse_1498" cx="1.68" cy="1.68" r="1.68" class="cls-3" transform="translate(23.366 16.917)"/><circle id="Ellipse_1499" cx="1.53" cy="1.53" r="1.53" class="cls-4" transform="translate(23.426 12.748)"/><circle id="Ellipse_1500" cx="1.2" cy="1.2" r="1.2" class="cls-5" transform="translate(24.146 9.208)"/><circle id="Ellipse_1501" cx=".99" cy=".99" r=".99" class="cls-6" transform="translate(25.046 5.849)"/><circle id="Ellipse_1502" cx=".9" cy=".9" r=".9" class="cls-7" transform="translate(26.126 2.67)"/><circle id="Ellipse_1503" cx=".69" cy=".69" r=".69" class="cls-8" transform="translate(27.625)"/><circle id="Ellipse_1504" cx="1.83" cy="1.83" r="1.83" class="cls-2" transform="translate(19.497 26.336)"/><circle id="Ellipse_1505" cx="1.68" cy="1.68" r="1.68" class="cls-3" transform="translate(15.027 25.256)"/><circle id="Ellipse_1506" cx="1.53" cy="1.53" r="1.53" class="cls-4" transform="translate(11.068 24.116)"/><circle id="Ellipse_1507" cx="1.2" cy="1.2" r="1.2" class="cls-5" transform="translate(7.829 22.856)"/><circle id="Ellipse_1508" cx=".99" cy=".99" r=".99" class="cls-6" transform="translate(4.799 21.326)"/><circle id="Ellipse_1509" cx=".9" cy=".9" r=".9" class="cls-7" transform="translate(2.16 19.437)"/><circle id="Ellipse_1510" cx=".69" cy=".69" r=".69" class="cls-8" transform="translate(0 17.607)"/><circle id="Ellipse_1511" cx="1.83" cy="1.83" r="1.83" class="cls-2" transform="translate(22.766 31.555)"/><circle id="Ellipse_1512" cx="1.68" cy="1.68" r="1.68" class="cls-3" transform="translate(20.397 35.724)"/><circle id="Ellipse_1513" cx="1.53" cy="1.53" r="1.53" class="cls-4" transform="translate(18.057 39.443)"/><circle id="Ellipse_1514" cx="1.2" cy="1.2" r="1.2" class="cls-5" transform="translate(15.717 42.653)"/><circle id="Ellipse_1515" cx=".99" cy=".99" r=".99" class="cls-6" transform="translate(13.348 45.382)"/><circle id="Ellipse_1516" cx=".9" cy=".9" r=".9" class="cls-7" transform="translate(10.708 47.512)"/><circle id="Ellipse_1517" cx=".69" cy=".69" r=".69" class="cls-8" transform="translate(8.189 49.222)"/></g></g></svg>