<svg xmlns="http://www.w3.org/2000/svg" width="180" height="53.814" viewBox="0 0 180 53.814"><path fill="#85b1b4" fill-rule="evenodd" d="M41.907 47.641l2.391 2.421a10.931 10.931 0 01-8.591 3.752A10.661 10.661 0 0124.934 42.89a10.727 10.727 0 0110.925-10.985 11.042 11.042 0 018.292 3.3l-2.391 2.752a8.425 8.425 0 00-5.931-2.633c-4.055 0-6.99 3.329-6.99 7.5s2.935 7.565 6.99 7.565c2.602.006 4.267-1.054 6.078-2.748zm19.013-2.209l5.724 8.015h-4.388l-5.205-7.38h-1.737v-3.3h2.523c2.663 0 4.358-1.392 4.358-3.571 0-2.33-1.634-3.541-4.388-3.541H52.39v17.792h-3.722V32.268h9.439c4.872 0 7.868 2.572 7.868 6.718a6.343 6.343 0 01-5.051 6.446zm20.053-.424l8.413-12.74h-4.263l-5.992 9.379-5.931-9.381h-4.388l8.413 12.831v8.35h3.752zm20.482-12.74c4.933 0 8.05 2.784 8.05 7.112 0 4.781-3.813 7.263-8.473 7.263h-1.281v-3.36h1.4c2.815 0 4.57-1.543 4.57-3.813 0-2.512-1.785-3.813-4.57-3.813h-4.327v17.79h-3.717V32.268zm27.991 3.443H112.52v.007h-.258v-3.45h17.188zm-6.718 2.923h-3.752v14.813h3.752zm21.288-6.728a10.956 10.956 0 11-11.106 10.985 10.759 10.759 0 0111.11-10.986zm0 18.49c4.206 0 7.142-3.359 7.142-7.5a7.266 7.266 0 00-7.2-7.565c-4.206 0-7.142 3.359-7.142 7.5a7.266 7.266 0 007.204 7.564z"/><path fill-rule="evenodd" d="M4.57 5.841C4.57 4.418 5.841 3.3 8.019 3.3a9.621 9.621 0 015.75 2.179l2-2.814A11.742 11.742 0 008.08 0C3.874 0 .847 2.481.847 6.173c0 3.934 2.542 5.266 7.051 6.355 3.934.908 4.781 1.725 4.781 3.268 0 1.634-1.453 2.693-3.752 2.693a9.754 9.754 0 01-6.688-2.754L0 18.4a13.049 13.049 0 008.836 3.389c4.449 0 7.565-2.36 7.565-6.355 0-3.541-2.33-5.145-6.809-6.234C5.538 8.231 4.57 7.5 4.57 5.841zm25.621-2.089h6.718V.3H19.72v3.45h6.718v17.736h3.752zM48.815.151h3.45l9.321 21.335h-3.935L55.5 16.372H45.486l-2.179 5.114h-3.813zm-1.967 12.922h7.293L50.479 4.6zm33.622 1.876L69.122.3h-3.45v21.186h3.662V6.416l11.681 15.07h3.117V.3H80.47zM97.932.3c6.658 0 11.258 4.57 11.258 10.561s-4.6 10.622-11.258 10.622h-7.9V.3zm0 17.794c4.449 0 7.354-3 7.354-7.172a6.959 6.959 0 00-7.354-7.233h-4.176V18.1zM125.114.151h-3.449l-9.321 21.335h3.813l2.179-5.114h10.016l2.148 5.114h3.934zm1.877 12.922H119.7l3.629-8.473zm23.787.393l5.72 8.019h-4.388L146.9 14.1h-4.661v7.384h-3.722V.3h9.442c4.872 0 7.868 2.572 7.868 6.718a6.343 6.343 0 01-5.05 6.449zm-3.087-2.666c2.663 0 4.358-1.392 4.358-3.571 0-2.33-1.634-3.541-4.388-3.541h-5.417V10.8zm32.309.06C180 4.872 175.4.3 168.742.3h-7.9v21.186h7.9c6.658 0 11.258-4.63 11.258-10.622zm-3.9.06c0 4.176-2.905 7.172-7.354 7.172h-4.176v-14.4h4.176a6.959 6.959 0 017.354 7.233z"/></svg>