<svg xmlns="http://www.w3.org/2000/svg" width="180" height="35.254" viewBox="0 0 180 35.254"><defs><style>.cls-1{fill:#23496e;fill-rule:evenodd}</style></defs><g id="banner-white" transform="translate(-56 -107.997)"><g id="Parafi_Logo-copy" transform="translate(56 107.997)"><path id="Fill-1" d="M86 19.842c2.754-6.3 5.521-12.59 8.243-18.9A1.294 1.294 0 0195.653 0c3.46.042 6.92.032 10.38.007.649 0 1.068.091 1.361.782q7.187 16.957 14.424 33.893a2.527 2.527 0 01.07.552c-2.048 0-4.056-.044-6.062.019-.938.03-1-.672-1.225-1.212-3.786-8.9-7.585-17.8-11.291-26.74a1.939 1.939 0 00-2.268-1.476c-1.228.109-2.377-.243-3.022 1.5-1.564 4.232-3.436 8.352-5.184 12.517H86" class="cls-1" transform="translate(-79.172 .003)"/><path id="Fill-13" d="M8.563 327H4.077L0 336.271c2.246 0 4.236-.032 6.223.018a1.1 1.1 0 001.217-.777c1.184-2.843 2.395-5.676 3.6-8.512H8.563" class="cls-1" transform="translate(0 -301.036)"/></g><path id="Fill-1-2" d="M1038 122.787c1.328-3.106 2.663-6.21 3.976-9.323a.625.625 0 01.68-.466c1.669.021 3.338.016 5.007 0a.576.576 0 01.656.386q3.467 8.364 6.957 16.717a1.289 1.289 0 01.034.272c-.988 0-1.956-.022-2.924.01-.452.015-.48-.332-.591-.6-1.826-4.392-3.658-8.781-5.446-13.189-.234-.577-.51-.781-1.094-.728s-1.147-.12-1.458.741c-.754 2.088-1.657 4.12-2.5 6.174H1038" class="cls-1" transform="translate(-904.029 -4.604)"/><path id="Fill-3" d="M1689 122.787c1.328-3.106 2.663-6.21 3.976-9.323a.624.624 0 01.68-.466c1.669.021 3.338.016 5.007 0a.576.576 0 01.656.386q3.467 8.364 6.957 16.717a1.278 1.278 0 01.034.272c-.987 0-1.957-.022-2.924.01-.452.015-.48-.332-.591-.6-1.826-4.392-3.658-8.781-5.446-13.189-.234-.577-.51-.781-1.094-.728s-1.147-.12-1.458.741c-.755 2.088-1.657 4.12-2.5 6.174H1689" class="cls-1" transform="translate(-1503.34 -4.604)"/><path id="Fill-5" d="M754.557 120.5a4.818 4.818 0 001.879-.252.931.931 0 00.522-.922v-4.835a.931.931 0 00-.522-.922 4.818 4.818 0 00-1.879-.252h-5.078v7.183zm-5.078 7.965H746V111h8.522a9.485 9.485 0 013.635.559 3.5 3.5 0 011.879 1.83 8.719 8.719 0 01.574 3.508q0 3.131-1.287 4.472t-4.278 1.342h-5.566z" class="cls-1" transform="translate(-635.214 -2.764)"/><path id="Fill-7" d="M1350.473 120.083h5.244a4.8 4.8 0 001.875-.252.931.931 0 00.521-.922v-4.416a.931.931 0 00-.521-.922 4.8 4.8 0 00-1.875-.252h-5.244zm8.543 8.385l-3.612-6.177h-4.931v6.177H1347V111h8.682a9.458 9.458 0 013.629.559 3.5 3.5 0 011.875 1.83 8.732 8.732 0 01.573 3.508 6.973 6.973 0 01-.677 3.368 3.625 3.625 0 01-2.205 1.691l3.924 6.512z" class="cls-1" transform="translate(-1188.495 -2.764)"/><path id="Fill-9" d="M2018.479 128.468H2015V111h11.831l-.383 2.32h-7.968v5.674h6.959v2.206h-6.959z" class="cls-1" transform="translate(-1803.455 -2.764)"/><path id="Fill-11" d="M2280 128.468h3.414V111H2280z" class="cls-1" transform="translate(-2047.414 -2.764)"/><path id="Fill-13-2" d="M997.965 273L996 277.6c1.083 0 2.042-.016 3 .009a.53.53 0 00.587-.385c.571-1.409 1.154-2.814 1.733-4.22h-3.354z" class="cls-1" transform="translate(-865.364 -151.902)"/><path id="Fill-14" d="M1652.145 273h-2.176l-1.969 4.6c1.081 0 2.039-.016 3 .009a.529.529 0 00.586-.384c.572-1.41 1.157-2.815 1.737-4.221h-1.175" class="cls-1" transform="translate(-1465.595 -151.902)"/><path id="Fill-15" d="M866 461v-2.614a2.52 2.52 0 01.557-1.817 2.4 2.4 0 011.772-.568h1.361a2.3 2.3 0 011.542.441 1.945 1.945 0 01.563 1.416q.022.3-.293.3-.27 0-.293-.3a1.335 1.335 0 00-.383-.98 1.79 1.79 0 00-1.136-.281h-1.361a2.528 2.528 0 00-1.03.172 1.059 1.059 0 00-.546.556 2.7 2.7 0 00-.169 1.061V461a2.7 2.7 0 00.169 1.061 1.058 1.058 0 00.546.556 2.563 2.563 0 001.041.172h1.35a1.818 1.818 0 001.136-.275 1.329 1.329 0 00.383-.986q.022-.3.293-.3.315 0 .293.31a1.924 1.924 0 01-.563 1.41 2.317 2.317 0 01-1.542.436h-1.35a2.4 2.4 0 01-1.778-.573A2.506 2.506 0 01866 461z" class="cls-1" transform="translate(-745.686 -320.371)"/><path id="Fill-16" d="M1096.551 460.793h3.17l-1.585-3.853zm4.721 2.316q0 .149-.19.241a.312.312 0 01-.145.034.234.234 0 01-.223-.183l-.748-1.812h-3.65l-.748 1.812a.259.259 0 01-.246.183.425.425 0 01-.145-.034.252.252 0 01-.179-.252.327.327 0 01.022-.138l2.768-6.731a.331.331 0 01.335-.229h.022a.336.336 0 01.324.229l2.768 6.731a.391.391 0 01.034.149z" class="cls-1" transform="translate(-956.503 -320.371)"/><path id="Fill-17" d="M1336.262 457.984a1.483 1.483 0 00-.319-1.055 1.382 1.382 0 00-1.035-.333h-2.327v3.119h2.327a1.4 1.4 0 001.035-.327 1.48 1.48 0 00.319-1.061zm.089-1.479a2.036 2.036 0 01.492 1.479v.344a2.05 2.05 0 01-.486 1.479 1.923 1.923 0 01-1.449.5h-2.327v2.775a.291.291 0 11-.582 0V456.3a.26.26 0 01.291-.3h2.618a1.928 1.928 0 011.443.5z" class="cls-1" transform="translate(-1174.686 -320.371)"/><path id="Fill-18" d="M1552.075 463.3a.306.306 0 01-.075-.218V456.3a.307.307 0 01.075-.218.3.3 0 01.406 0 .308.308 0 01.075.218v6.788a.307.307 0 01-.075.218.3.3 0 01-.406 0" class="cls-1" transform="translate(-1377.218 -320.371)"/><path id="Fill-19" d="M1721.77 463.3a.289.289 0 01-.085-.212V456.6h-2.393a.279.279 0 01-.208-.086.29.29 0 01-.084-.212.285.285 0 01.084-.218.29.29 0 01.208-.08h5.371a.286.286 0 01.213.08.3.3 0 01.079.218.3.3 0 01-.079.212.274.274 0 01-.213.086h-2.393v6.491a.3.3 0 01-.079.212.274.274 0 01-.213.086.279.279 0 01-.208-.086" class="cls-1" transform="translate(-1530.958 -320.371)"/><path id="Fill-20" d="M1923.551 460.793h3.17l-1.585-3.853zm4.721 2.316c0 .1-.064.18-.19.241a.313.313 0 01-.145.034.234.234 0 01-.223-.183l-.748-1.812h-3.65l-.748 1.812a.259.259 0 01-.246.183.423.423 0 01-.145-.034.251.251 0 01-.178-.252.327.327 0 01.022-.138l2.768-6.731a.331.331 0 01.334-.229h.022a.337.337 0 01.323.229l2.768 6.731a.391.391 0 01.034.149z" class="cls-1" transform="translate(-1717.84 -320.371)"/><path id="Fill-21" d="M2160 463.086V456.3a.291.291 0 11.582 0v6.49H2164a.3.3 0 010 .6h-3.706a.26.26 0 01-.291-.3" class="cls-1" transform="translate(-1936.942 -320.371)"/></g></svg>