<svg xmlns="http://www.w3.org/2000/svg" xmlns:xlink="http://www.w3.org/1999/xlink" width="106.28" height="106.28" viewBox="0 0 106.28 106.28"><defs><style>.a{fill:url(#a);}.b{fill:none;stroke:#fff;stroke-linecap:round;stroke-linejoin:round;stroke-width:2px;}</style><linearGradient id="a" x1="0.5" x2="0.5" y2="1" gradientUnits="objectBoundingBox"><stop offset="0" stop-color="#eace8d"/><stop offset="0.439" stop-color="#d45b9c"/><stop offset="0.571" stop-color="#ba65a5"/><stop offset="0.852" stop-color="#787ebd"/><stop offset="1" stop-color="#548dcb"/></linearGradient></defs><g transform="translate(-813.146 -2890.265)"><path class="a" d="M863.424,2891.265v-1h70.724a17.778,17.778,0,0,1,17.778,17.778v70.724a17.777,17.777,0,0,1-17.778,17.778H863.424a17.779,17.779,0,0,1-17.778-17.778v-70.724a17.78,17.78,0,0,1,17.778-17.778v2a15.8,15.8,0,0,0-15.778,15.778v70.724a15.8,15.8,0,0,0,15.778,15.778h70.724a15.8,15.8,0,0,0,15.778-15.778v-70.724a15.8,15.8,0,0,0-15.778-15.778H863.424Z" transform="translate(-32.5)"/><path class="b" d="M869.8,2929.675c10.914.218,21.828.489,32.743.636,7.2.1,14.407.019,21.937.019V2920.6a35.6,35.6,0,0,0-4.911-.72c-14.188-.053-28.379-.169-42.564.08-3.01.053-5.995,1.519-8.187,2.116v40.286l4.637,4.637h55.282c0-10.906.112-21.827-.144-32.74-.032-1.334-2.039-2.623-3.13-3.932" transform="translate(-32.5)"/><line class="b" x1="44.53" transform="translate(844.517 2925.127)"/><path class="b" d="M930.716,2943.463l-13.89,1.3,2.521,9.174h11.369" transform="translate(-32.5)"/></g></svg>