<svg xmlns="http://www.w3.org/2000/svg" xmlns:xlink="http://www.w3.org/1999/xlink" width="25.75" height="13.053" viewBox="0 0 25.75 13.053">
  <defs>
    <clipPath id="clip-path">
      <path id="路径_236" data-name="路径 236" d="M1356.973,51.033l1.191,2.06h-2.383Zm4.452-9.889-4.452,7.706-4.452-7.706-.885-.012L1344.1,54.185h1.257l6.721-11.637.629,1.079-6.1,10.558h1.27l5.454-9.464.629,1.08-4.841,8.384h1.257l4.212-7.279,1.75,3.04-2.449,4.237h6.164l-2.449-4.237,1.75-3.04,4.212,7.279h1.258l-4.842-8.384.63-1.08,5.454,9.464h1.268l-6.1-10.558.629-1.079,6.721,11.637h1.258l-7.54-13.053Z" transform="translate(-1344.098 -41.132)" fill="#fff"/>
    </clipPath>
  </defs>
  <g id="组_550" data-name="组 550" transform="translate(-1344.098 -41.132)">
    <g id="组_511" data-name="组 511" transform="translate(1344.098 41.132)" clip-path="url(#clip-path)">
      <rect id="矩形_203" data-name="矩形 203" width="25.75" height="13.054" transform="translate(0 0)" fill="#fff"/>
    </g>
  </g>
</svg>
